<svg width="28" height="20" viewBox="0 0 28 20" fill="none" xmlns="http://www.w3.org/2000/svg">
<path d="M22.9137 11.0912C20.9984 11.0912 19.0749 11.157 17.1679 11.083C8.4382 10.7131 12.8902 11.4556 4.16877 11.0282C3.19059 10.9788 2.22063 10.798 1.25888 10.5925C0.543741 10.4445 -0.0563205 10.0582 0.0176597 9.19509C0.0916398 8.34021 0.732801 8.01963 1.46438 8.01963C4.53867 8.03607 7.61296 8.03607 10.6872 8.16759C17.7482 8.47173 13.2815 7.69633 20.4082 7.88539C20.1205 7.75387 17.352 5.13326 17.056 5.00996C15.3381 4.29481 14.4388 2.76093 12.7208 2.03757C12.4249 1.91427 12.1208 1.74165 11.8742 1.55259C11.381 1.18269 11.3727 0.870332 11.4303 0.590852C11.5125 0.155191 11.8495 0.0647673 12.3345 0.0894274C12.6386 0.105869 12.9921 0.0894293 13.2962 0.18807C17.4473 1.57725 21.5902 6.28249 25.7249 7.71277C26.2428 7.89361 26.7524 8.17309 27.1798 8.51011C28.2567 9.35678 28.0347 10.8282 26.7853 11.3625C23.2425 12.8667 19.6996 17.6706 16.1568 19.1666C15.9184 19.2653 15.8116 19.3228 15.417 19.3886C15.0718 19.4461 14.6525 19.1338 14.5046 18.8625C14.3895 18.6488 14.521 18.1145 14.7265 17.9419C15.1129 17.6213 15.6225 17.4158 16.1075 17.2349C17.6882 15.8265 19.2614 14.45 20.9001 13.1062C21.1303 13.024 22.7164 11.4529 22.9465 11.3625C23.2178 11.2145 23.3904 11.1405 22.9137 11.0912Z" fill="black"/>
</svg>
