<svg width="58" height="59" viewBox="0 0 58 59" fill="none" xmlns="http://www.w3.org/2000/svg">
<g clip-path="url(#clip0_33_357)">
<path fill-rule="evenodd" clip-rule="evenodd" d="M55.7788 22.8623C43.2959 38.6615 22.9751 38.1041 5.71238 30.6784C5.41564 30.5514 5.07061 30.6882 4.94363 30.9849C4.81664 31.2816 4.9534 31.6266 5.25014 31.7536C22.9959 39.3883 43.865 39.8291 56.6973 23.587C56.8977 23.3343 56.8543 22.9665 56.6004 22.7653C56.3478 22.5649 55.98 22.6083 55.7788 22.8623Z" fill="black"/>
<path fill-rule="evenodd" clip-rule="evenodd" d="M5.80511 31.3558C6.82739 31.2451 8.11186 31.1204 8.25721 31.102C12.1962 30.6033 15.8467 29.5203 19.4652 27.8664C19.7591 27.7325 19.8885 27.3843 19.7546 27.0904C19.6207 26.7965 19.2726 26.6672 18.9787 26.801C15.4702 28.406 11.9302 29.4573 8.10925 29.9405C7.88656 29.9689 4.99891 30.2474 4.41925 30.3476C4.1813 30.3876 4.05909 30.4841 4.03242 30.5096C3.88566 30.6398 3.84452 30.7849 3.83484 30.902C3.82491 31.0344 3.8618 31.257 4.05794 31.4725C4.26412 31.6973 4.80366 32.0566 4.93253 32.1583C6.8727 33.6979 9.17225 35.2473 11.0044 37.1099C12.7517 38.8861 14.0755 40.9499 14.1578 43.6014C14.1676 43.9242 14.4388 44.178 14.7616 44.1683C15.0844 44.1586 15.3383 43.8873 15.3286 43.5645C15.2359 40.6 13.7921 38.2743 11.8396 36.2893C10.0181 34.4378 7.74917 32.8857 5.80511 31.3558Z" fill="black"/>
</g>
<defs>
<clipPath id="clip0_33_357">
<rect width="42.374" height="42.374" fill="white" transform="translate(21.187 0.69043) rotate(30)"/>
</clipPath>
</defs>
</svg>
