<svg width="59" height="59" viewBox="0 0 59 59" fill="none" xmlns="http://www.w3.org/2000/svg">
<g clip-path="url(#clip0_34_563)">
<path fill-rule="evenodd" clip-rule="evenodd" d="M56.7194 23.088C44.2365 38.8873 23.9156 38.3299 6.65296 30.9041C6.35622 30.7772 6.01119 30.9139 5.88421 31.2107C5.75723 31.5074 5.89398 31.8524 6.19072 31.9794C23.9364 39.614 44.8056 40.0548 57.6379 23.8127C57.8383 23.5601 57.7949 23.1922 57.541 22.9911C57.2884 22.7907 56.9205 22.8341 56.7194 23.088Z" fill="black"/>
<path fill-rule="evenodd" clip-rule="evenodd" d="M6.74569 31.5815C7.76797 31.4708 9.05244 31.3461 9.19779 31.3277C13.1367 30.829 16.7872 29.746 20.4058 28.0921C20.6997 27.9582 20.8291 27.61 20.6952 27.3161C20.5613 27.0222 20.2131 26.8929 19.9193 27.0267C16.4108 28.6317 12.8708 29.683 9.04983 30.1662C8.82714 30.1946 5.9395 30.4731 5.35983 30.5733C5.12189 30.6133 4.99967 30.7098 4.973 30.7354C4.82624 30.8655 4.7851 31.0106 4.77542 31.1278C4.76549 31.2601 4.80238 31.4827 4.99852 31.6982C5.2047 31.923 5.74424 32.2823 5.87311 32.384C7.81328 33.9236 10.1128 35.473 11.945 37.3356C13.6923 39.1119 15.0161 41.1756 15.0984 43.8271C15.1082 44.1499 15.3794 44.4037 15.7022 44.394C16.025 44.3843 16.2789 44.113 16.2691 43.7902C16.1765 40.8258 14.7327 38.5 12.7802 36.515C10.9587 34.6635 8.68976 33.1114 6.74569 31.5815Z" fill="black"/>
</g>
<defs>
<clipPath id="clip0_34_563">
<rect width="42.374" height="42.374" fill="white" transform="translate(22.1276 0.91626) rotate(30)"/>
</clipPath>
</defs>
</svg>
