<svg width="88" height="45" viewBox="0 0 88 45" fill="none" xmlns="http://www.w3.org/2000/svg">
<path d="M19.3285 7.96533C11.3351 7.96533 4.96393 14.492 4.96393 22.456C4.96393 30.5007 11.3271 37.0361 19.3285 37.0361C27.3731 37.0361 33.6505 30.5095 33.6505 22.4575C33.6519 14.4993 27.3731 7.96387 19.3285 7.96387V7.96533ZM19.3285 14.1165C25.8551 14.1165 30.6482 18.2657 32.6707 22.4589C30.6482 26.7167 25.8617 30.8923 19.3285 30.8923C12.7527 30.8923 8.00579 26.7218 5.98399 22.4589C8.00506 18.2665 12.7541 14.1187 19.3285 14.1187V14.1165ZM19.3285 14.7765C15.0722 14.7765 11.6021 18.2217 11.6021 22.4575C11.6021 26.757 15.0722 30.1839 19.3285 30.1839C23.5847 30.1839 27.0087 26.7555 27.0087 22.4582C27.0093 21.4492 26.8111 20.45 26.4254 19.5177C26.0397 18.5854 25.474 17.7382 24.7606 17.0247C24.0473 16.3111 23.2003 15.7452 22.2681 15.3592C21.3358 14.9732 20.3367 14.7747 19.3277 14.7751L19.3285 14.7765ZM46.3195 13.7411C41.1173 13.7411 37.4931 17.6901 37.4931 22.4927V22.5513C37.4931 27.4133 41.1928 31.2604 46.1883 31.2604C49.4443 31.2604 51.3905 30.0959 53.1293 28.2244L50.7562 25.8411C49.4362 27.0474 48.2262 27.8313 46.3049 27.8313C43.4023 27.8313 41.3915 25.3981 41.3915 22.4963V22.4523C41.3915 19.5498 43.4544 17.176 46.3049 17.176C47.9915 17.176 49.3262 17.8983 50.6374 19.0922L53.0105 16.351C51.4338 14.811 49.5183 13.7447 46.321 13.7447L46.3195 13.7411ZM54.5329 14.0344V30.9627H62.5995C66.4143 30.9627 68.9341 29.4175 68.9341 26.3236V26.2635C68.9341 23.9945 67.7277 22.8586 65.7661 22.1091C66.9746 21.4323 67.9917 20.3711 67.9917 18.4557V18.4117C67.9917 17.2383 67.6089 16.3033 66.836 15.5223C65.8651 14.5646 64.3471 14.0337 62.4155 14.0337L54.5329 14.0344ZM58.1555 17.2904H61.8405C63.4172 17.2904 64.2847 17.924 64.2847 19.0284V19.0885C64.2847 20.3411 63.239 20.8705 61.5897 20.8705H58.1563V17.2882L58.1555 17.2904ZM58.1555 23.9667H62.4822C64.3889 23.9667 65.2278 24.6751 65.2278 25.8095V25.8682C65.2278 27.1207 64.2268 27.7015 62.5922 27.7015L58.1555 27.703V23.9667ZM76.2307 13.7858C72.7841 13.7858 70.3091 15.8186 70.3091 18.8971V18.9426C70.3091 22.3027 72.5179 23.2473 75.922 24.1163C78.7505 24.8518 79.3393 25.3226 79.3393 26.2649V26.3251C79.3393 27.3114 78.4102 27.9164 76.8929 27.9164C74.9481 27.9164 73.3568 27.1193 71.8388 25.8667L69.6293 28.5038C71.6628 30.3151 74.2551 31.201 76.8189 31.201V31.1995C80.4731 31.1995 83.0353 29.3119 83.0353 25.9562V25.9122C83.0353 22.951 81.0847 21.7322 77.6571 20.8273C74.7399 20.0756 74.0021 19.7075 74.0021 18.6016V18.5576C74.0021 17.7326 74.7538 17.0689 76.1845 17.0689C77.6153 17.0689 79.0885 17.7011 80.5904 18.7453L82.5191 15.9271C80.8104 14.5573 78.7043 13.7763 76.2285 13.7763L76.2307 13.7858Z" fill="black"/>
</svg>
