<svg width="29" height="29" viewBox="0 0 29 29" fill="none" xmlns="http://www.w3.org/2000/svg">
<g clip-path="url(#clip0_34_482)">
<path d="M28.7244 14.48C28.7244 6.74799 22.4564 0.47998 14.7244 0.47998C6.99244 0.47998 0.724426 6.74799 0.724426 14.48C0.724426 22.212 6.99244 28.48 14.7244 28.48C22.4564 28.48 28.7244 22.212 28.7244 14.48Z" fill="#1778F2"/>
<path d="M15.8408 22.382V14.888H18.3563L18.7335 11.9675H15.8408V10.1028C15.8408 9.25727 16.0757 8.68102 17.2882 8.68102H18.8348V6.06962C18.0862 5.99043 17.3339 5.95207 16.5811 5.95472C14.3513 5.95472 12.8248 7.31569 12.8248 9.81524V11.9675H10.3029V14.888H12.8248V22.382H15.8408Z" fill="#FDFDFD"/>
</g>
<defs>
<clipPath id="clip0_34_482">
<rect width="28" height="28" fill="white" transform="translate(0.724426 0.47998)"/>
</clipPath>
</defs>
</svg>
