<svg width="78" height="31" viewBox="0 0 78 31" fill="none" xmlns="http://www.w3.org/2000/svg">
<g clip-path="url(#clip0_244_40)">
<path d="M18.2019 30.52H3.5488L11.285 0.52002H21.1934C24.185 0.52002 26.9479 1.88891 28.7581 4.27966C30.5874 6.6704 31.1971 9.71668 30.435 12.6473L27.7482 23.02C26.6431 27.4352 22.6988 30.52 18.2019 30.52ZM9.18898 26.1049H18.2019C20.7171 26.1049 22.9274 24.3889 23.5753 21.9018L26.262 11.529C26.6812 9.92876 26.3382 8.27066 25.3474 6.97889C24.3565 5.66783 22.8512 4.93519 21.2315 4.93519H14.6577L9.18898 26.1049Z" fill="white"/>
<path d="M22.1652 3.45061C20.7361 1.58043 18.602 0.52002 16.2583 0.52002H8.71262L5.39711 13.3028H1.94821V17.718H4.27288L0.957367 30.52H12.4473C15.82 30.52 18.7735 28.2064 19.631 24.9095L23.48 9.96732C24.0707 7.69226 23.5943 5.32079 22.1652 3.45061ZM19.2689 8.84907L15.4199 23.7719C15.0769 25.1408 13.8383 26.0856 12.4473 26.0856H6.59755L8.76979 17.718H14.6196V13.3028H9.91307L12.0853 4.91591H16.2773C17.2491 4.91591 18.1447 5.35935 18.7354 6.13056C19.307 6.92105 19.5166 7.90434 19.2689 8.84907Z" fill="white"/>
<path d="M10.1227 0.52002H1.94821V4.93519H10.1227V0.52002Z" fill="white"/>
<path d="M45.088 6.38104C45.8693 6.94017 46.1932 7.92346 46.0598 9.33092C45.9074 11.1625 45.3357 12.6471 44.3449 13.7846C43.3541 14.9222 41.8678 15.5006 39.867 15.5006H36.7802L39.0096 5.53271H41.8868C43.2588 5.552 44.3258 5.8412 45.088 6.38104ZM41.1818 7.46074L39.7908 13.6304H40.4196C41.3914 13.6304 42.0964 13.2062 42.5538 12.3386C43.0111 11.4903 43.2969 10.4877 43.3922 9.3502C43.4493 8.63683 43.3541 8.13554 43.0873 7.86562C42.8205 7.5957 42.4013 7.46074 41.8297 7.46074H41.1818Z" fill="black"/>
<path d="M54.2915 5.552L53.5864 7.42217H50.29L49.8136 9.52372H52.7099L52.3098 11.3553H49.4135L48.899 13.6304H52.4241L52.0049 15.5006H45.8883L48.1177 5.53271H54.2915V5.552Z" fill="black"/>
<path d="M61.5704 5.552L60.8653 7.42217H57.5689L57.0925 9.52372H59.9888L59.5887 11.3553H56.6924L56.1779 13.6304H59.703L59.2838 15.5006H53.1672L55.3966 5.53271H61.5704V5.552Z" fill="black"/>
<path d="M68.754 6.38104C69.5352 6.94017 69.8591 7.92346 69.7257 9.33092C69.5733 11.1625 69.0017 12.6471 68.0108 13.7846C67.02 14.9222 65.5337 15.5006 63.533 15.5006H60.4271L62.6565 5.53271H65.5528C66.9247 5.552 67.9918 5.8412 68.754 6.38104ZM64.8477 7.46074L63.4568 13.6304H64.0856C65.0573 13.6304 65.7624 13.2062 66.2197 12.3386C66.677 11.4903 66.9628 10.4877 67.0581 9.3502C67.1153 8.63683 67.02 8.13554 66.7532 7.86562C66.4864 7.5957 66.0673 7.46074 65.4956 7.46074H64.8477Z" fill="black"/>
<path d="M68.6396 15.5196L69.0588 13.553L74.5085 7.59546H70.8309L71.2692 5.55176H77.9383L77.5 7.53762L72.1266 13.4181H76.2805L75.5565 15.5196H68.6396Z" fill="black"/>
<path d="M43.5065 19.2022L42.0202 20.5518C41.7916 20.3397 41.5629 20.1855 41.3152 20.0698C41.0675 19.9541 40.7817 19.8963 40.4768 19.8963C39.8861 19.8963 39.3716 20.1276 38.9715 20.6096C38.5523 21.0917 38.2474 21.6701 38.0187 22.3449C37.7901 23.0197 37.6567 23.6752 37.5995 24.2922C37.5424 25.0055 37.6376 25.5454 37.8663 25.8924C38.114 26.2395 38.4951 26.413 38.9905 26.413C39.3335 26.413 39.6574 26.3359 39.9623 26.2009C40.2672 26.0659 40.6102 25.8539 40.9913 25.5839L41.8297 27.1264C41.3724 27.512 40.8388 27.8397 40.2672 28.0904C39.6765 28.341 39.0477 28.4567 38.3808 28.4567C37.6186 28.4567 36.9517 28.3025 36.4181 27.9747C35.8656 27.6469 35.4654 27.1842 35.1986 26.5672C34.9319 25.9503 34.8366 25.1983 34.9128 24.3114C35.0081 23.2896 35.2558 22.3063 35.6941 21.3423C36.1323 20.3783 36.7611 19.5685 37.5805 18.9323C38.3998 18.296 39.4097 17.9683 40.5911 17.9683C41.8868 17.9683 42.8586 18.3924 43.5065 19.2022Z" fill="black"/>
<path d="M51.2046 19.048C51.7953 19.7613 52.043 20.7639 51.9286 22.0557C51.8334 23.0775 51.5857 24.0608 51.1664 25.0248C50.7472 25.9888 50.1184 26.8179 49.28 27.4734C48.4416 28.1289 47.3936 28.4567 46.1551 28.4567C44.9356 28.4567 44.021 28.0904 43.4112 27.377C42.8205 26.6636 42.5728 25.6418 42.6871 24.3693C42.7824 23.3474 43.0301 22.3641 43.4493 21.4001C43.8685 20.4361 44.4973 19.6264 45.3357 18.9708C46.1741 18.3153 47.2031 17.9875 48.4607 17.9875C49.6802 17.9683 50.5948 18.3346 51.2046 19.048ZM46.5933 20.6675C46.1932 21.1881 45.8883 21.8243 45.6978 22.5377C45.5072 23.251 45.3738 23.9258 45.3167 24.5621C45.2595 25.2562 45.3167 25.7575 45.5263 26.0659C45.7168 26.3744 46.0598 26.5287 46.5171 26.5287C47.1269 26.5287 47.6223 26.2587 48.0224 25.7382C48.4226 25.2176 48.7275 24.6006 48.918 23.8873C49.1085 23.1739 49.2419 22.4991 49.2991 21.8243C49.3563 21.1302 49.2991 20.6289 49.0895 20.3204C48.8989 20.012 48.556 19.8577 48.0986 19.8577C47.4889 19.877 46.9935 20.1469 46.5933 20.6675Z" fill="black"/>
<path d="M56.559 18.2385L54.3105 28.1871H51.7381L53.9675 18.2192H56.559V18.2385Z" fill="black"/>
<path d="M63.4949 28.1871H60.2365L59.3981 20.4172C59.379 20.8992 59.36 21.4198 59.3028 21.9596C59.2076 22.9814 59.0551 23.984 58.8265 24.9673L58.1024 28.1871H55.8349L58.0643 18.2192H61.2845L62.161 25.9892C62.161 25.4686 62.1991 24.9095 62.2563 24.3118C62.3325 23.4635 62.4659 22.5958 62.6755 21.6897L63.4758 18.2192H65.7433L63.4949 28.1871Z" fill="black"/>
<path d="M73.8035 19.2988L72.3553 20.6677C72.0695 20.3978 71.7837 20.1857 71.4788 20.0508C71.1739 19.9158 70.8309 19.858 70.4498 19.858C70.0497 19.858 69.7067 19.9351 69.459 20.1086C69.2113 20.2821 69.0779 20.5135 69.0398 20.8027C69.0207 21.0533 69.116 21.2654 69.3065 21.4197C69.5161 21.5739 69.9163 21.7474 70.526 21.9595C71.3454 22.2487 71.9551 22.615 72.3172 23.0585C72.6983 23.5019 72.8507 24.0996 72.7745 24.813C72.7173 25.4299 72.5268 26.0083 72.1838 26.5482C71.8408 27.1073 71.3454 27.5508 70.6785 27.8978C70.0116 28.2448 69.1732 28.4184 68.1633 28.4184C66.6579 28.4184 65.4766 27.9171 64.6 26.9338L66.2006 25.4492C66.7723 26.1047 67.4963 26.4325 68.3919 26.4325C68.8683 26.4325 69.2494 26.3361 69.5352 26.124C69.821 25.9312 69.9735 25.642 70.0116 25.2757C70.0306 24.9865 69.9544 24.7551 69.7448 24.543C69.5352 24.331 69.1732 24.1574 68.6396 23.9646C67.725 23.6562 67.0962 23.2706 66.7342 22.8078C66.3721 22.3451 66.2197 21.786 66.2768 21.1305C66.334 20.5713 66.5055 20.0508 66.8485 19.5688C67.1724 19.0868 67.6488 18.6819 68.2776 18.3927C68.9064 18.0842 69.6495 17.9492 70.507 17.9492C71.898 17.9685 73.0032 18.4119 73.8035 19.2988Z" fill="black"/>
</g>
<defs>
<clipPath id="clip0_244_40">
<rect width="77" height="30" fill="white" transform="translate(0.957367 0.52002)"/>
</clipPath>
</defs>
</svg>
