<svg width="89" height="45" viewBox="0 0 89 45" fill="none" xmlns="http://www.w3.org/2000/svg">
<path d="M29.4123 26.8515H22.5259V34.8082H15.5157V10.1924H30.4973L30.9586 16.9244H22.5763V20.1334H29.4123V26.8515ZM58.3002 22.0819L50.9406 34.7876L58.4863 34.784L62.0849 28.5616L65.7191 34.773H73.4769L65.9861 22.0012L72.799 10.2268H65.2963L62.1791 15.5288L59.1197 10.2268H51.3515L58.3002 22.0819ZM30.7843 22.5307C30.7843 15.9439 36.0969 10.5759 42.6658 10.5759C49.2348 10.5759 54.531 15.9439 54.531 22.5417C54.531 29.1395 49.191 34.5038 42.6658 34.5038C36.1407 34.5038 30.7843 29.1505 30.7843 22.53V22.5307ZM44.7796 27.4462V17.6196C44.7679 17.0659 44.5425 16.5375 44.1497 16.1427C43.7569 15.7479 43.2263 15.5165 42.6666 15.4958C42.1191 15.5246 41.6042 15.7618 41.2298 16.1577C40.8553 16.5537 40.6505 17.0776 40.6582 17.6196V27.4279C40.647 28.5367 41.5452 29.4446 42.6666 29.4592C43.2147 29.467 43.7438 29.2609 44.1393 28.8856C44.5348 28.5103 44.7648 27.9961 44.7796 27.4543V27.4462Z" fill="#282B6A"/>
</svg>
