<svg width="380" height="23" viewBox="0 0 380 23" fill="none" xmlns="http://www.w3.org/2000/svg">
<path fill-rule="evenodd" clip-rule="evenodd" d="M161.235 2.71031C143.403 3.42149 125.781 4.29596 108.596 5.25198C84.2698 6.6044 59.9527 8.00347 35.7821 10.2186C28.1738 10.9182 20.4474 11.3612 12.8866 12.2356C8.14043 12.7835 1.84709 13.5646 1.02117 13.7278C0.589177 13.8211 0.400715 13.9611 0.339817 14.0077C-0.0883676 14.3342 -0.0102397 14.6488 0.231447 14.8937C0.328502 14.9986 0.573926 15.2552 1.25522 15.2902C46.8179 17.6802 93.4082 13.0167 139.026 12.5271C218.136 11.6876 299.643 15.022 378.124 22.2971C378.809 22.3554 379.476 22.0639 379.571 21.6325C379.685 21.2128 379.19 20.8047 378.505 20.7464C299.89 13.4597 218.25 10.1136 138.988 10.9647C96.474 11.4194 53.1208 15.5117 10.5478 14.1126C11.5259 13.996 12.4851 13.8794 13.3605 13.7745C20.8909 12.9001 28.5849 12.4687 36.1628 11.7692C60.2819 9.55403 84.5496 8.15498 108.844 6.81422C138.988 5.13536 170.445 3.68966 202.15 3.01345C213.492 3.11838 224.796 3.22335 236.1 3.3516C260.554 3.63141 285.123 4.44753 309.52 5.54345C316.866 5.88156 324.211 6.23129 331.557 6.53442C333.993 6.63935 340.273 6.94243 341.148 6.91911C342.233 6.89579 342.442 6.33622 342.461 6.24295C342.518 6.03309 342.48 5.74161 341.947 5.49677C341.89 5.4618 341.548 5.34513 340.787 5.27518C296.427 1.14797 249.06 0.460213 202.188 1.45121C152.747 1.01983 103.116 0.833209 53.8002 0.63501C53.0942 0.63501 52.5175 0.984824 52.5118 1.4162C52.508 1.84757 53.077 2.1974 53.783 2.20906C89.4917 2.34896 125.381 2.48879 161.235 2.71031Z" fill="#27AE60"/>
</svg>
