<svg width="78" height="30" viewBox="0 0 78 30" fill="none" xmlns="http://www.w3.org/2000/svg">
<g clip-path="url(#clip0_244_21)">
<path d="M17.7397 30H3.08667L10.8229 0H20.7313C23.7229 0 26.4858 1.36889 28.296 3.75964C30.1253 6.15038 30.735 9.19666 29.9728 12.1272L27.2861 22.5C26.181 26.9152 22.2366 30 17.7397 30ZM8.72686 25.5848H17.7397C20.2549 25.5848 22.4653 23.8689 23.1131 21.3817L25.7999 11.009C26.2191 9.40874 25.8761 7.75064 24.8852 6.45887C23.8944 5.14781 22.3891 4.41517 20.7694 4.41517H14.1956L8.72686 25.5848Z" fill="#C12B36"/>
<path d="M21.7031 2.93059C20.274 1.06041 18.1399 0 15.7962 0H8.2505L4.93498 12.7828H1.48608V17.1979H3.81075L0.495239 30H11.9852C15.3579 30 18.3114 27.6864 19.1688 24.3895L23.0179 9.4473C23.6086 7.17224 23.1322 4.80077 21.7031 2.93059ZM18.8068 8.32905L14.9577 23.2519C14.6148 24.6208 13.3762 25.5656 11.9852 25.5656H6.13543L8.30766 17.1979H14.1574V12.7828H9.45094L11.6232 4.39589H15.8152C16.787 4.39589 17.6826 4.83933 18.2733 5.61054C18.8449 6.40103 19.0545 7.38432 18.8068 8.32905Z" fill="#FF5A60"/>
<path d="M9.66055 0H1.48608V4.41517H9.66055V0Z" fill="#FF5A60"/>
<path d="M44.6259 5.86118C45.4071 6.4203 45.7311 7.40359 45.5977 8.81105C45.4453 10.6427 44.8736 12.1272 43.8828 13.2648C42.8919 14.4023 41.4057 14.9807 39.4049 14.9807H36.3181L38.5475 5.01285H41.4247C42.7967 5.03213 43.8637 5.32133 44.6259 5.86118ZM40.7197 6.94087L39.3287 13.1105H39.9575C40.9293 13.1105 41.6343 12.6864 42.0916 11.8188C42.5489 10.9704 42.8348 9.96786 42.93 8.83033C42.9872 8.11696 42.8919 7.61568 42.6252 7.34575C42.3584 7.07583 41.9392 6.94087 41.3675 6.94087H40.7197Z" fill="black"/>
<path d="M53.8293 5.03213L53.1243 6.90231H49.8278L49.3515 9.00385H52.2478L51.8476 10.8355H48.9513L48.4369 13.1105H51.962L51.5428 14.9807H45.4262L47.6556 5.01285H53.8293V5.03213Z" fill="black"/>
<path d="M61.1082 5.03213L60.4032 6.90231H57.1067L56.6303 9.00385H59.5267L59.1265 10.8355H56.2302L55.7157 13.1105H59.2408L58.8216 14.9807H52.7051L54.9345 5.01285H61.1082V5.03213Z" fill="black"/>
<path d="M68.2918 5.86118C69.0731 6.4203 69.397 7.40359 69.2636 8.81105C69.1112 10.6427 68.5395 12.1272 67.5487 13.2648C66.5579 14.4023 65.0716 14.9807 63.0708 14.9807H59.9649L62.1943 5.01285H65.0906C66.4626 5.03213 67.5296 5.32133 68.2918 5.86118ZM64.3856 6.94087L62.9946 13.1105H63.6234C64.5952 13.1105 65.3002 12.6864 65.7576 11.8188C66.2149 10.9704 66.5007 9.96786 66.596 8.83033C66.6531 8.11696 66.5579 7.61568 66.2911 7.34575C66.0243 7.07583 65.6051 6.94087 65.0335 6.94087H64.3856Z" fill="black"/>
<path d="M68.1775 15L68.5967 13.0334L74.0463 7.07584H70.3688L70.807 5.03214H77.4762L77.0379 7.018L71.6645 12.8985H75.8184L75.0943 15H68.1775Z" fill="black"/>
<path d="M43.0444 18.6825L41.5581 20.0321C41.3294 19.82 41.1008 19.6658 40.8531 19.5501C40.6054 19.4344 40.3195 19.3766 40.0147 19.3766C39.424 19.3766 38.9095 19.608 38.5093 20.09C38.0901 20.572 37.7853 21.1504 37.5566 21.8252C37.328 22.5 37.1946 23.1555 37.1374 23.7725C37.0802 24.4859 37.1755 25.0257 37.4042 25.3727C37.6519 25.7198 38.033 25.8933 38.5284 25.8933C38.8714 25.8933 39.1953 25.8162 39.5002 25.6812C39.8051 25.5463 40.148 25.3342 40.5291 25.0643L41.3675 26.6067C40.9102 26.9923 40.3767 27.32 39.8051 27.5707C39.2144 27.8213 38.5856 27.937 37.9186 27.937C37.1565 27.937 36.4895 27.7828 35.956 27.455C35.4034 27.1272 35.0033 26.6645 34.7365 26.0476C34.4698 25.4306 34.3745 24.6787 34.4507 23.7918C34.546 22.7699 34.7937 21.7866 35.2319 20.8226C35.6702 19.8586 36.299 19.0488 37.1184 18.4126C37.9377 17.7763 38.9476 17.4486 40.129 17.4486C41.4247 17.4486 42.3965 17.8727 43.0444 18.6825Z" fill="black"/>
<path d="M50.7425 18.5283C51.3332 19.2416 51.5809 20.2442 51.4665 21.536C51.3713 22.5578 51.1236 23.5411 50.7044 24.5051C50.2851 25.4691 49.6563 26.2982 48.8179 26.9537C47.9795 27.6092 46.9315 27.937 45.693 27.937C44.4735 27.937 43.5589 27.5707 42.9491 26.8573C42.3584 26.1439 42.1107 25.1221 42.225 23.8496C42.3203 22.8278 42.568 21.8445 42.9872 20.8805C43.4064 19.9164 44.0352 19.1067 44.8736 18.4511C45.712 17.7956 46.741 17.4679 47.9986 17.4679C49.2181 17.4486 50.1327 17.8149 50.7425 18.5283ZM46.1312 20.1478C45.7311 20.6684 45.4262 21.3046 45.2357 22.018C45.0451 22.7314 44.9117 23.4062 44.8546 24.0424C44.7974 24.7365 44.8546 25.2378 45.0642 25.5463C45.2547 25.8547 45.5977 26.009 46.055 26.009C46.6648 26.009 47.1602 25.7391 47.5603 25.2185C47.9605 24.6979 48.2654 24.081 48.4559 23.3676C48.6464 22.6542 48.7798 21.9794 48.837 21.3046C48.8942 20.6105 48.837 20.1092 48.6274 19.8008C48.4368 19.4923 48.0939 19.338 47.6366 19.338C47.0268 19.3573 46.5314 19.6272 46.1312 20.1478Z" fill="black"/>
<path d="M56.0968 17.7185L53.8484 27.6671H51.276L53.5054 17.6992H56.0968V17.7185Z" fill="black"/>
<path d="M63.0327 27.6671H59.7744L58.936 19.8972C58.9169 20.3792 58.8979 20.8997 58.8407 21.4396C58.7454 22.4614 58.593 23.464 58.3643 24.4473L57.6402 27.6671H55.3727L57.6021 17.6992H60.8224L61.6989 25.4691C61.6989 24.9486 61.737 24.3894 61.7942 23.7918C61.8704 22.9434 62.0038 22.0758 62.2134 21.1697L63.0137 17.6992H65.2812L63.0327 27.6671Z" fill="black"/>
<path d="M73.3413 18.7789L71.8932 20.1478C71.6074 19.8779 71.3215 19.6658 71.0167 19.5308C70.7118 19.3959 70.3688 19.338 69.9877 19.338C69.5876 19.338 69.2446 19.4152 68.9969 19.5887C68.7491 19.7622 68.6158 19.9936 68.5777 20.2828C68.5586 20.5334 68.6539 20.7455 68.8444 20.8997C69.054 21.054 69.4542 21.2275 70.0639 21.4396C70.8833 21.7288 71.493 22.0951 71.8551 22.5385C72.2362 22.982 72.3886 23.5797 72.3124 24.293C72.2552 24.91 72.0647 25.4884 71.7217 26.0283C71.3787 26.5874 70.8833 27.0308 70.2164 27.3779C69.5494 27.7249 68.711 27.8984 67.7011 27.8984C66.1958 27.8984 65.0144 27.3972 64.1379 26.4139L65.7385 24.9293C66.3101 25.5848 67.0342 25.9126 67.9298 25.9126C68.4062 25.9126 68.7873 25.8162 69.0731 25.6041C69.3589 25.4113 69.5113 25.1221 69.5494 24.7558C69.5685 24.4666 69.4923 24.2352 69.2827 24.0231C69.0731 23.811 68.711 23.6375 68.1775 23.4447C67.2629 23.1362 66.6341 22.7506 66.272 22.2879C65.91 21.8252 65.7576 21.2661 65.8147 20.6105C65.8719 20.0514 66.0434 19.5308 66.3864 19.0488C66.7103 18.5668 67.1867 18.1619 67.8155 17.8727C68.4443 17.5643 69.1874 17.4293 70.0449 17.4293C71.4359 17.4486 72.541 17.892 73.3413 18.7789Z" fill="black"/>
</g>
<defs>
<clipPath id="clip0_244_21">
<rect width="77" height="30" fill="white" transform="translate(0.495239)"/>
</clipPath>
</defs>
</svg>
