<svg width="32" height="35" viewBox="0 0 32 35" fill="none" xmlns="http://www.w3.org/2000/svg">
<path d="M0.622945 16.29C0.622945 16.29 -0.509053 14.6275 1.14194 13.4879C2.79094 12.3484 3.92194 14.0098 3.92194 14.0098L9.17293 21.7258C9.35393 21.4215 9.55193 21.1212 9.77293 20.825L2.48494 10.1176C2.48494 10.1176 1.35394 8.45614 3.00394 7.31658C4.65294 6.17703 5.78394 7.8385 5.78394 7.8385L12.6389 17.9111C12.8939 17.7016 13.1549 17.491 13.4239 17.2844L5.47694 5.60574C5.47694 5.60574 4.34594 3.94426 5.99594 2.80471C7.64494 1.66515 8.77593 3.32662 8.77593 3.32662L16.7229 15.0033C17.0149 14.8229 17.3039 14.6668 17.5939 14.5015L10.1659 3.58758C10.1659 3.58758 9.03493 1.92611 10.6839 0.786552C12.3329 -0.353005 13.4639 1.30847 13.4639 1.30847L21.3179 12.8491L22.5119 14.6043C17.5639 18.024 17.0929 24.4573 19.9199 28.6115C20.4849 29.4427 21.3099 28.8734 21.3099 28.8734C17.9169 23.887 18.9529 18.2839 23.9019 14.8653L22.4429 7.50802C22.4429 7.50802 21.8979 5.56947 23.8209 5.01933C25.7449 4.47021 26.2909 6.40877 26.2909 6.40877L27.9759 11.4506C28.6439 13.4496 29.3549 15.4416 30.2959 17.3257C32.9529 22.6457 31.3659 29.2573 26.3559 32.7203C20.8909 36.4957 13.4199 35.0921 9.67193 29.5868L0.622945 16.29Z" fill="#FFD12C"/>
</svg>
