<svg width="30" height="29" viewBox="0 0 30 29" fill="none" xmlns="http://www.w3.org/2000/svg">
<g clip-path="url(#clip0_34_470)">
<path d="M2.68867 2.385C0.409752 4.6705 0.876168 7.09833 0.876168 14.474C0.876168 21.866 0.685252 23.2228 1.60359 25.0615C2.37088 26.5992 3.83659 27.7542 5.56209 28.1847C6.94442 28.5277 7.86275 28.4798 15.3496 28.4798C21.6257 28.4798 23.5783 28.5883 25.206 28.1823C27.6178 27.5815 29.5801 25.6927 29.8484 22.3992C29.8858 21.9395 29.8858 7.01666 29.8472 6.54767C29.562 3.0395 27.3254 1.01766 24.3783 0.608165C23.7016 0.513664 23.5663 0.485664 20.1008 0.479831C7.80838 0.485664 5.11379 -0.0428357 2.68867 2.385Z" fill="url(#paint0_linear_34_470)"/>
<path d="M15.3737 4.1423C10.9863 4.1423 6.81995 3.76547 5.22858 7.7088C4.57124 9.33747 4.6667 11.4526 4.6667 14.4813C4.6667 17.139 4.57849 19.6368 5.22858 21.2526C6.81633 25.1983 11.0165 24.8203 15.3713 24.8203C19.5727 24.8203 23.9046 25.2426 25.5153 21.2526C26.1738 19.6076 26.0772 17.524 26.0772 14.4813C26.0772 10.4423 26.308 7.8348 24.2792 5.87713C22.225 3.8938 19.447 4.1423 15.3689 4.1423H15.3737ZM14.4143 6.00547C19.6657 5.9973 23.8526 5.2973 24.0882 10.3023C24.1752 12.1561 24.1752 16.8018 24.0882 18.6556C23.8599 23.4821 20.0536 22.9525 15.3749 22.9525C11.2521 22.9525 9.20762 23.0936 7.83012 21.7625C6.43208 20.4126 6.59883 18.483 6.59883 14.4766C6.59883 9.72714 6.13362 6.27963 11.0491 6.06147C12.0363 6.0183 12.4194 6.00547 14.4143 6.00314V6.00547ZM21.0892 7.72163C20.3799 7.72163 19.8047 8.27697 19.8047 8.9618C19.8047 9.64664 20.3799 10.202 21.0892 10.202C21.7985 10.202 22.3736 9.64664 22.3736 8.9618C22.3736 8.27697 21.7985 7.72163 21.0892 7.72163ZM15.3737 9.1718C12.3372 9.1718 9.87583 11.5495 9.87583 14.4813C9.87583 17.4131 12.3372 19.7896 15.3737 19.7896C18.4103 19.7896 20.8705 17.4131 20.8705 14.4813C20.8705 11.5495 18.4103 9.1718 15.3737 9.1718ZM15.3737 11.035C17.3445 11.035 18.9419 12.5785 18.9419 14.4813C18.9419 16.3841 17.3445 17.9276 15.3737 17.9276C13.403 17.9276 11.8055 16.3841 11.8055 14.4813C11.8055 12.5773 13.403 11.035 15.3737 11.035Z" fill="white"/>
</g>
<defs>
<linearGradient id="paint0_linear_34_470" x1="2.76668" y1="26.6637" x2="28.8729" y2="3.26109" gradientUnits="userSpaceOnUse">
<stop stop-color="#FFDD55"/>
<stop offset="0.5" stop-color="#FF543E"/>
<stop offset="1" stop-color="#C837AB"/>
</linearGradient>
<clipPath id="clip0_34_470">
<rect width="29" height="28" fill="white" transform="translate(0.87616 0.47998)"/>
</clipPath>
</defs>
</svg>
