<svg width="30" height="30" viewBox="0 0 30 30" fill="none" xmlns="http://www.w3.org/2000/svg">
<g clip-path="url(#clip0_34_473)">
<path d="M22.65 0.986816H6.74001C3.1612 0.986816 0.26001 3.88801 0.26001 7.46682V23.3768C0.26001 26.9556 3.1612 29.8568 6.74001 29.8568H22.65C26.2288 29.8568 29.13 26.9556 29.13 23.3768V7.46682C29.13 3.88801 26.2288 0.986816 22.65 0.986816Z" fill="#0B86CA"/>
<path d="M8.26002 12.9868H11.26V22.6668H8.26002V12.9868ZM9.79002 8.17676C10.1337 8.17676 10.4697 8.27857 10.7557 8.46932C11.0416 8.66008 11.2646 8.93124 11.3966 9.2486C11.5286 9.56596 11.5636 9.9153 11.4973 10.2526C11.4309 10.5898 11.2662 10.8999 11.0239 11.1436C10.7815 11.3873 10.4724 11.5538 10.1356 11.6221C9.7987 11.6904 9.44916 11.6573 9.13105 11.5272C8.81293 11.397 8.5405 11.1755 8.34811 10.8907C8.15572 10.6059 8.05199 10.2705 8.05002 9.92676C8.0487 9.69742 8.09273 9.47008 8.17959 9.25782C8.26644 9.04555 8.3944 8.85256 8.5561 8.68992C8.71781 8.52729 8.91007 8.39823 9.12183 8.31016C9.33359 8.22209 9.56067 8.17675 9.79002 8.17676ZM13.18 12.9868H16.07V14.3068C16.3593 13.8131 16.7772 13.4072 17.2792 13.1324C17.7811 12.8577 18.3482 12.7244 18.92 12.7468C21.92 12.7468 22.53 14.7468 22.53 17.3568V22.6668H19.53V17.9868C19.53 16.8668 19.53 15.4168 17.97 15.4168C16.41 15.4168 16.17 16.6368 16.17 17.8968V22.6868H13.17L13.18 12.9868Z" fill="white"/>
</g>
<defs>
<clipPath id="clip0_34_473">
<rect width="28.87" height="28.87" fill="white" transform="translate(0.26001 0.986816)"/>
</clipPath>
</defs>
</svg>
