<svg width="88" height="45" viewBox="0 0 88 45" fill="none" xmlns="http://www.w3.org/2000/svg">
<path d="M43.9985 4.83985C43.3143 3.13119 41.6467 1.28612 38.5242 1.53985C34.5466 1.97985 33.3073 5.78439 33.9079 8.05919C32.3239 6.98632 29.6296 6.51479 27.2785 8.52852C24.2425 11.5719 25.8669 15.6873 27.5352 16.6744C25.696 16.5043 22.7891 17.7465 22.1452 20.9981C21.461 25.0344 24.5381 27.3877 27.5352 27.3877H60.7603C64.2253 27.3877 66.1474 24.3905 65.9318 21.5635C65.5915 17.8749 62.216 16.4595 60.3746 16.7617C61.9131 15.9037 63.9679 11.8703 60.8439 8.70085C58.3638 6.34172 55.2017 7.19972 54.0973 8.22932C54.6964 6.25885 53.7137 2.18445 49.6914 1.54132C49.4127 1.51052 49.1458 1.49365 48.8906 1.49365C45.8194 1.49365 44.4393 3.73765 44.0066 4.84205" fill="white"/>
<path d="M27.8329 9.16944C26.0788 10.7571 25.4401 14.3556 28.6029 16.4588L41.2185 25.1136L35.1025 11.0996C33.8206 7.79224 30.3138 7.07137 27.8351 9.1687" fill="#F37021"/>
<path d="M38.6921 2.35534C36.6417 2.39714 33.5625 4.83914 34.9331 8.56814L41.2595 23.4878L43.4815 7.79447C43.9963 3.89534 41.0454 2.09501 38.6914 2.35461" fill="#CC004C"/>
<path d="M44.4693 7.19676H45.6647C45.6647 7.19676 46.3027 7.19676 46.398 7.49742C45.9272 7.88169 44.6453 7.93742 44.8162 9.99076L46.827 23.4929L53.1102 8.53289C54.3957 5.19256 51.6978 2.40369 49.3042 2.31789L48.9647 2.30322C46.816 2.30322 44.3557 3.86376 44.4767 7.20189" fill="#6460AA"/>
<path d="M52.8513 11.2271L46.9084 25.0725L59.5203 16.3722C62.4272 14.3101 61.9586 11.0137 60.3313 9.38353C59.6493 8.61646 58.3968 8.02393 57.0695 8.02393C55.5016 8.02393 53.8245 8.85553 52.8513 11.2271Z" fill="#0089D0"/>
<path d="M58.1071 18.3421L46.2638 26.6141H60.8469C63.8389 26.6141 65.7617 23.529 64.9066 20.6983C64.3346 18.9192 62.6333 17.523 60.6753 17.52C59.8481 17.5208 58.9703 17.7694 58.1086 18.3414" fill="#0DB14B"/>
<path d="M27.5 26.6139H41.8682L30.0139 18.3419C27.2771 16.5834 24.1985 17.6123 23.0883 20.5302C22.1467 23.8713 24.4985 26.6139 27.5 26.6139Z" fill="#FCB711"/>
<path d="M43.0467 37.1125H45.5459C46.1201 37.1491 47.1387 37.65 47.1387 38.838C47.1387 40.0803 46.0827 40.5819 45.5092 40.6383H43.0467V37.1125ZM43.0085 31.5817H45.0655C45.7695 31.6198 46.6004 32.139 46.6004 33.1041C46.6004 34.0574 45.9719 34.6807 45.1587 34.7929H43.01V31.5809L43.0085 31.5817ZM40.1977 29.2783V42.9381H46.8248C48.3978 42.9381 50.2678 41.3614 50.2678 39.3007C50.2678 37.1484 48.862 36.0917 47.9725 35.6634C47.9725 35.6634 49.6005 34.7101 49.5293 32.6751C49.456 29.9287 46.9187 29.2783 46.0482 29.2783H40.1984H40.1977ZM30.0315 42.9381V35.0716L38.621 43.4587V29.2797H35.7353V36.9453L27.1436 28.7319V42.9381H30.0315ZM50.7305 35.9611C50.8039 40.2878 53.9059 43.5093 57.8952 43.5093C58.8485 43.5093 59.8385 43.3304 60.8564 42.9373V40.1543C60.0784 40.6313 59.1839 40.8843 58.2714 40.8855C55.8573 40.8855 53.5781 39.0991 53.6734 35.8497C53.8362 33.2141 55.9937 31.3939 58.3198 31.3939C59.1705 31.3939 60.0475 31.6396 60.8571 32.1749V29.4667C59.9133 29.0839 58.9747 28.9131 58.0705 28.9131C54.0907 28.9131 50.8068 32.2695 50.7371 35.9531" fill="black"/>
</svg>
