<svg width="60" height="21" viewBox="0 0 60 21" fill="none" xmlns="http://www.w3.org/2000/svg">
<path d="M42.782 5.30605C44.1099 5.30605 45.1851 4.23085 45.1851 2.90505C45.1851 1.57925 44.1092 0.501953 42.782 0.501953C41.4548 0.501953 40.381 1.57855 40.381 2.90505C40.3809 3.22042 40.443 3.53271 40.5636 3.82409C40.6842 4.11547 40.861 4.38024 41.084 4.60327C41.307 4.8263 41.5717 5.00322 41.863 5.12392C42.1544 5.24463 42.4667 5.30675 42.782 5.30675V5.30605ZM24.3762 6.60105C24.2677 6.88105 23.4872 9.07905 21.5993 11.3632V1.59395L16.5698 2.58795V20.298H21.6V14.824C23.0574 17.008 23.777 20.298 23.777 20.298H29.8019C29.2069 17.82 26.5994 13.2525 26.5994 13.2525C28.1486 11.2543 29.3427 9.00459 30.1295 6.60175L24.3762 6.60105ZM37.5992 6.41625C33.0947 6.56115 30.8071 8.58205 30.8071 12.6001V20.2973H35.7225V14.0211C35.7225 11.6159 36.0375 10.5911 38.8921 10.4861V6.48905C38.4119 6.38685 37.5992 6.41905 37.5992 6.41905V6.41625ZM8.13481 8.55405C7.51881 8.51415 6.09221 8.42105 6.09221 7.13725C6.09221 5.58815 8.14531 5.58815 8.91601 5.58815C10.2705 5.58815 12.024 5.98715 13.277 6.36305C13.7037 6.54057 14.1351 6.70676 14.5706 6.86145L14.6266 6.87685V2.63205L14.551 2.60965C13.0726 2.09165 11.3541 1.59465 8.16701 1.59465C2.67201 1.59465 0.726013 4.79505 0.726013 7.53765C0.726013 9.11825 1.40361 12.8388 7.69591 13.2679C8.22931 13.3008 9.64471 13.382 9.64471 14.7099C9.64471 15.8054 8.48551 16.4515 6.53671 16.4515C4.40171 16.4515 2.32761 15.9069 1.06971 15.3903V19.7604C2.95411 20.2539 5.07791 20.501 7.56781 20.501C12.9403 20.501 15.3462 17.4728 15.3462 14.4712C15.3462 11.0678 12.654 8.85715 8.13621 8.55405H8.13481ZM40.3474 20.3001H45.2222V6.61785H40.346L40.3474 20.3001ZM54.402 2.46755V20.3001H59.2782V1.59605L54.402 2.46755ZM47.2879 2.46755L52.1585 1.59605V20.3001H47.2879V2.46615V2.46755Z" fill="#862565"/>
</svg>
