<svg width="38" height="41" viewBox="0 0 38 41" fill="none" xmlns="http://www.w3.org/2000/svg">
<path fill-rule="evenodd" clip-rule="evenodd" d="M25.2857 38.261C28.9142 37.2582 32.713 36.7524 36.3982 36.289C37.1919 36.1918 37.9288 36.734 37.9855 37.4978C38.0989 38.2621 37.5316 38.9611 36.7946 39.0583C33.2228 39.5044 29.538 39.9818 26.0797 40.9471C25.3426 41.1565 24.5486 40.7255 24.3218 39.984C24.095 39.2431 24.5487 38.4709 25.2857 38.261Z" fill="#FF5A60"/>
<path fill-rule="evenodd" clip-rule="evenodd" d="M14.2874 24.0443C20.127 18.1757 26.7036 13.0625 32.4297 7.0365C32.94 6.4737 33.8471 6.44355 34.414 6.96894C34.981 7.49488 35.0374 8.37927 34.4705 8.94207C28.7443 14.9854 22.1678 20.1153 16.3282 26.0012C15.7613 26.5506 14.8544 26.5585 14.2874 26.018C13.7772 25.4781 13.7205 24.5937 14.2874 24.0443Z" fill="#FF5A60"/>
<path fill-rule="evenodd" clip-rule="evenodd" d="M3.34465 1.47162C3.17456 4.83052 3.00481 8.18943 2.83473 11.5489C2.83473 12.3183 2.15406 12.9123 1.36034 12.8749C0.566613 12.837 0 12.182 0 11.4121C0.170084 8.04762 0.339835 4.68368 0.509919 1.31975C0.566613 0.550376 1.24706 -0.0397771 2.04078 0.00209755C2.77781 0.0439722 3.40134 0.702802 3.34465 1.47162Z" fill="#FF5A60"/>
</svg>
