<svg width="29" height="29" viewBox="0 0 29 29" fill="none" xmlns="http://www.w3.org/2000/svg">
<g clip-path="url(#clip0_34_462)">
<path d="M14.1092 28.4797C21.8411 28.4797 28.1091 22.2118 28.1091 14.4799C28.1091 6.74794 21.8411 0.47998 14.1092 0.47998C6.3773 0.47998 0.109344 6.74794 0.109344 14.4799C0.109344 22.2118 6.3773 28.4797 14.1092 28.4797Z" fill="#55ACEE"/>
<path d="M22.6839 10.5414C22.0839 10.8074 21.4386 10.9874 20.7618 11.0677C21.4528 10.6537 21.9831 9.99861 22.2334 9.21674C21.5868 9.60031 20.8703 9.87857 20.1084 10.0286C19.498 9.37845 18.6283 8.97217 17.6652 8.97217C15.8175 8.97217 14.3189 10.4708 14.3189 12.3185C14.3189 12.5808 14.3486 12.8361 14.4059 13.0812C11.6248 12.9417 9.15893 11.6095 7.50833 9.58434C7.22034 10.0785 7.05513 10.6537 7.05513 11.2669C7.05513 12.4276 7.64634 13.4523 8.54376 14.0522C7.99547 14.035 7.47913 13.8845 7.02818 13.6332C7.02793 13.6474 7.02793 13.6617 7.02793 13.6756C7.02793 15.297 8.1819 16.6494 9.71245 16.9566C9.43195 17.0335 9.13572 17.0742 8.831 17.0742C8.61488 17.0742 8.4055 17.0535 8.20136 17.0145C8.62711 18.3437 9.86269 19.3112 11.3274 19.3384C10.1819 20.2361 8.73917 20.7709 7.17092 20.7709C6.9014 20.7709 6.63437 20.7552 6.37308 20.724C7.85322 21.6738 9.61263 22.2276 11.5023 22.2276C17.6575 22.2276 21.0236 17.1286 21.0236 12.7061C21.0236 12.5611 21.0203 12.4166 21.0138 12.2734C21.6682 11.8017 22.2354 11.2125 22.6839 10.5414Z" fill="#F1F2F2"/>
</g>
<defs>
<clipPath id="clip0_34_462">
<rect width="28" height="28" fill="white" transform="translate(0.108337 0.47998)"/>
</clipPath>
</defs>
</svg>
