<svg width="81" height="24" viewBox="0 0 81 24" fill="none" xmlns="http://www.w3.org/2000/svg">
<path d="M70.7393 23.5978C69.1618 23.4851 67.93 22.9946 66.9657 22.0755C66.5421 21.6587 66.1881 21.175 65.9177 20.6435C65.8787 20.5589 65.8397 20.4912 65.8341 20.4912C65.7578 20.5328 65.6834 20.578 65.6112 20.6265L64.2511 21.4159C62.0939 22.5886 59.8755 23.2765 57.6402 23.4794C56.9156 23.5358 56.0795 23.5527 55.5667 23.5076C54.4184 23.3949 53.4876 23.0679 52.7351 22.4928C52.4539 22.26 52.1929 22.0035 51.9547 21.726C51.8094 21.5369 51.6754 21.3392 51.5534 21.134L51.4753 20.993L51.2301 21.2073C49.8923 22.3687 48.5155 23.0904 47.1499 23.3498C46.4921 23.4738 45.7842 23.4851 45.2881 23.3836C44.9775 23.335 44.6824 23.2132 44.4268 23.0281C44.1712 22.843 43.9622 22.5998 43.8166 22.318C43.4821 21.6752 43.4097 20.7957 43.5657 19.5384C43.6605 18.7829 43.733 18.3826 44.1231 17.0012C44.3015 16.2683 44.4576 15.4225 44.5133 14.87C44.5468 14.543 44.5468 14.0694 44.5133 13.8551C44.4409 13.3646 44.2625 13.0827 43.9392 12.953C43.8277 12.9079 43.5323 12.8967 43.3929 12.9361C42.7965 13.094 42.1109 13.827 41.3305 15.135C40.2547 16.9392 39.6583 18.6194 39.5078 20.3503C39.4744 20.7111 39.4799 21.7373 39.5134 22.0643C39.5524 22.4364 39.6249 22.8141 39.7252 23.0791L39.8144 23.3385C39.8255 23.3723 39.8088 23.3723 39.2793 23.361C38.6884 23.3498 38.315 23.3216 37.9081 23.2483C36.4309 23.0002 35.5948 22.4026 35.2325 21.3313C35.0095 20.6829 34.9538 19.9894 35.0263 18.952C35.0796 18.22 35.2028 17.495 35.3942 16.787C35.56 16.1728 35.6811 15.5472 35.7565 14.9151C35.7899 14.5937 35.7955 13.9961 35.7676 13.8326C35.6561 13.3082 35.422 13.032 34.9873 12.9305C34.8981 12.9136 34.8033 12.9079 34.6751 12.9136C34.5661 12.9116 34.4578 12.9327 34.3574 12.9756C33.8 13.2011 33.2035 13.9341 32.5737 15.2308C31.8853 16.5872 31.4525 18.0613 31.2972 19.5779C31.2136 20.3897 31.2192 21.5512 31.2972 22.3067C31.3418 22.7127 31.431 23.1524 31.5202 23.3892C31.5313 23.4231 31.5202 23.4231 31.052 23.4118C30.4922 23.413 29.9343 23.3448 29.3909 23.2088C28.7125 23.0577 28.0938 22.7065 27.6128 22.1996C27.299 21.8218 27.0707 21.3792 26.9439 20.9028C26.9295 20.8458 26.9128 20.7893 26.8937 20.7337C26.8881 20.728 26.8157 20.79 26.7265 20.8746C25.4723 22.0304 24.3408 22.7521 23.1312 23.1693C22.4623 23.3949 21.7377 23.5245 21.0911 23.5245C20.1435 23.5245 19.4579 23.1863 19.0176 22.5097C18.8392 22.239 18.7389 22.0022 18.6552 21.664C18.488 20.9874 18.5159 20.1699 18.7667 18.89L19.4746 15.9864L20.0543 13.827C20.1435 13.4661 20.1491 13.4323 20.1491 13.2462C20.1435 12.626 19.8983 12.2765 19.4802 12.2708C19.3687 12.2708 19.3409 12.2765 19.2126 12.3385C19.0231 12.4343 18.8782 12.5358 18.5103 12.8008L18.1982 13.0263L18.1536 13.1673C17.8972 13.9454 17.3398 15.0843 16.6932 16.1217C15.9853 17.2719 14.8983 18.7716 13.9619 19.9105C12.1392 22.1206 10.5729 23.3216 9.19048 23.5753C8.93408 23.6204 8.54946 23.6204 8.35437 23.5697C7.49597 23.3554 6.79363 22.4759 6.16934 20.8803C5.88436 19.9061 5.61676 18.9267 5.36667 17.9428C5.10345 16.9479 4.83776 15.9537 4.56958 14.9602C4.3787 14.2196 4.08997 13.5085 3.71118 12.8459C3.48821 12.5076 3.22066 12.2934 2.98655 12.2708C2.89179 12.2596 2.87507 12.2652 2.73014 12.3385C2.58522 12.4118 2.13372 12.705 1.76025 12.97L1.54844 13.1165C1.53729 13.1222 1.38122 12.9474 1.13038 12.6091C0.990116 12.4242 0.848905 12.24 0.706756 12.0566C0.68446 12.034 0.717904 12.0002 0.985459 11.7521C1.5958 11.1989 2.20338 10.6426 2.80818 10.0832C3.63314 9.31645 4.11251 8.92178 4.66992 8.56094C5.26077 8.16627 5.63423 8.01968 6.07458 7.99712C7.17824 7.94074 7.91402 8.56094 8.3042 10.0381C8.39896 10.3764 8.44356 10.6019 8.58291 11.5266L9.36328 15.8116C9.6587 17.0069 9.98757 17.7004 10.3387 17.8751C10.4335 17.9202 10.4614 17.9315 10.545 17.9202C10.9352 17.892 11.4758 17.2831 12.2339 16.0597C12.8471 15.0448 13.2373 14.2329 13.3655 13.6127C13.3989 13.4548 13.4045 13.3872 13.4045 13.0602C13.4045 12.7332 13.3989 12.6655 13.3766 12.5753C13.2874 12.2596 13.1258 12.0453 12.8749 11.9213C12.6687 11.8198 12.5293 11.7916 12.206 11.7916C11.8263 11.7916 11.4499 11.8643 11.0968 12.0058C10.9853 12.0453 10.9296 12.0622 10.9184 12.0509C10.9421 11.9496 10.9719 11.8498 11.0076 11.7521C11.3198 10.8275 11.6765 10.0607 12.1559 9.49687C12.3231 9.27134 12.6687 8.91614 12.8694 8.75263C13.2038 8.47073 13.6497 8.21701 14.0511 8.07606C14.915 7.75468 16.0912 7.6983 16.8381 7.94638C17.8526 8.28467 18.3988 9.14166 18.5103 10.6301L18.5215 10.7711L18.5995 10.6978L19.2684 10.134C20.6062 8.89359 21.3865 8.32977 22.0331 8.13808C22.1613 8.09861 22.2338 8.09297 22.4568 8.0817C23.2706 8.0535 23.8391 8.30722 24.2293 8.9105C24.586 9.45176 24.7477 10.1509 24.6975 10.9571C24.6864 11.1827 24.6585 11.3518 24.5136 12.0848L23.6552 16.9899C23.5548 17.6327 23.5437 17.6552 23.5604 17.892C23.5827 18.4671 23.7053 18.8223 23.9618 19.0873C24.0343 19.1673 24.1213 19.2324 24.2182 19.279C24.4411 19.3918 24.7756 19.4256 24.9985 19.3692C25.2114 19.2952 25.4153 19.1969 25.6061 19.0761C26.0427 18.7994 26.4515 18.4803 26.8268 18.1232C26.8487 17.9693 26.8691 17.8152 26.8881 17.6609L27.1111 16.2119L27.4344 13.9341L27.5013 12.8065C27.479 12.502 27.2783 12.3441 27.0386 12.4231C26.8714 12.4794 26.5147 12.705 26.0186 13.0545C25.8123 13.2011 25.7677 13.2237 25.751 13.2068L24.8202 12.1186C24.8202 12.113 24.8648 12.0622 24.9205 12.0228L26.7209 10.3313L28.6161 8.63987C28.9617 8.37488 29.2292 8.21701 29.4634 8.13244C29.5637 8.09861 29.6139 8.09297 29.7978 8.09297C29.9316 8.09297 30.0765 8.10425 30.1322 8.12116C30.606 8.23392 30.9795 8.49892 31.2861 8.96688C31.5926 9.43485 31.7989 9.95919 31.8881 10.5456C31.9438 10.8669 31.9438 11.4928 31.8992 11.7578L31.8713 11.9495C31.8713 11.9607 31.9271 11.8931 31.9828 11.7972C32.4671 11.0936 33.0577 10.4715 33.7331 9.95356C34.001 9.7542 34.2781 9.56793 34.5636 9.39538C35.5447 8.83157 36.626 8.52147 37.7074 8.49328C38.7107 8.45945 39.4688 8.70753 39.9928 9.22624C40.1881 9.42455 40.3484 9.65531 40.4666 9.90845C40.7007 10.399 40.801 10.9233 40.8344 11.6732L40.8456 12.034L41.1466 11.769C41.3207 11.6167 41.4846 11.4529 41.6371 11.2785C41.9407 10.9305 42.2607 10.5975 42.5958 10.2806C43.6939 9.2657 44.8533 8.69061 46.1187 8.53275C46.4252 8.49328 46.938 8.47637 47.2 8.50456C47.846 8.531 48.4594 8.79808 48.9224 9.25443C49.5356 9.91409 49.7975 10.7936 49.7362 12.0397C49.6916 12.9418 49.5579 13.7706 49.1788 15.4225C48.7162 17.4974 48.6437 17.9372 48.6995 18.501C48.744 18.952 48.8332 19.1437 49.0618 19.2678C49.229 19.358 49.3739 19.3918 49.6749 19.4031C49.9202 19.4143 49.9369 19.4087 50.0651 19.3636C50.2323 19.3072 50.4553 19.1945 50.6671 19.0479C50.7953 18.9633 50.8232 18.9351 50.8176 18.9125C50.7897 18.7998 50.7619 18.1796 50.7786 17.8131C50.7998 16.6341 51.0857 15.4754 51.6147 14.4246C51.9937 13.6476 52.4654 12.9204 53.0193 12.2596C54.6916 10.1734 56.8097 8.87667 59.1174 8.42562C60.065 8.2452 61.1798 8.2001 61.9936 8.31286C63.5543 8.51583 64.5242 9.19804 64.959 10.3877C65.0983 10.7824 65.182 11.2052 65.1931 11.6732C65.2043 12.1412 65.1597 12.4794 65.0092 12.9474C64.6747 13.9848 63.8943 15.0222 62.6569 16.116C61.1909 17.4015 59.3849 18.298 57.3337 18.766L56.4976 18.9351C56.4753 18.9351 56.6648 19.1606 56.793 19.2734C57.1832 19.6511 57.6625 19.8654 58.259 19.9387C58.4819 19.9669 59.318 19.95 59.7082 19.9105C61.3526 19.7526 62.9635 19.3072 64.8587 18.4841L65.2488 18.3149L65.2377 18.2191C65.1855 17.6452 65.1855 17.0677 65.2377 16.4938C65.3804 15.1466 65.8473 13.8554 66.5978 12.7332C66.9056 12.2588 67.2505 11.8101 67.629 11.3913C68.4512 10.4171 69.455 9.61629 70.5832 9.03454C71.8622 8.38612 73.2718 8.04463 74.7025 8.03659C75.3546 8.02531 75.795 8.05914 76.3189 8.16627C77.0306 8.30688 77.7026 8.60535 78.2866 9.04018C78.6973 9.3722 79.0595 9.76133 79.3624 10.196C80.1149 11.2672 80.4883 12.6768 80.4437 14.2949C80.4047 15.7608 80.1093 17.0802 79.5519 18.3262C78.9945 19.4425 78.2253 20.5984 77.3 21.4666C75.8786 22.8198 74.251 23.5527 72.2945 23.7557C72.0436 23.7839 71.0514 23.8008 70.8118 23.7895L70.7393 23.5978ZM71.9544 20.1248C72.9856 20.0007 73.9054 19.279 74.6746 17.9653C75.4479 16.7096 75.8484 15.2555 75.8284 13.7762C75.8117 13.2011 75.7448 12.7783 75.5887 12.299C75.4438 11.8649 75.2989 11.6055 75.1038 11.4251C74.9087 11.2447 74.7136 11.1883 74.3123 11.2165C73.8862 11.2425 73.4694 11.3537 73.086 11.5435C72.3614 11.9044 71.7482 12.5133 71.1908 13.4605C70.482 14.6176 70.0701 15.9354 69.9924 17.2944C69.9478 18.0274 70.0593 18.6476 70.3435 19.2283C70.5442 19.6342 70.8006 19.9218 71.0849 20.0458C71.3628 20.1489 71.6622 20.178 71.9544 20.1304V20.1248ZM56.0293 17.0802C57.5868 16.461 58.9314 15.3949 59.8977 14.013C60.1597 13.6183 60.3269 13.2349 60.3827 12.9136C60.405 12.7123 60.3956 12.5086 60.3548 12.3103C60.327 12.1806 60.2433 12.0171 60.1764 11.9382C60.1096 11.8592 59.9758 11.769 59.842 11.7296C59.6255 11.684 59.4027 11.6783 59.1843 11.7127C58.4764 11.8649 57.7796 12.4118 57.0773 13.3703C56.3136 14.4077 55.8956 15.4 55.7952 16.3754C55.7729 16.6291 55.7729 17.1647 55.7952 17.1647C55.8691 17.1424 55.9416 17.1161 56.0126 17.0858L56.0293 17.0802ZM22.0276 5.52198C21.6374 5.48815 21.236 5.37539 20.9796 5.22316C20.8347 5.13859 20.6173 4.94126 20.5226 4.81158C20.3713 4.5869 20.2722 4.33056 20.2327 4.06171C20.1937 3.76202 20.1975 3.45821 20.2439 3.1596C20.333 2.70855 20.5783 2.28006 20.9908 1.84592C21.689 1.07331 22.6427 0.585956 23.6719 0.475852C24.2293 0.419471 24.731 0.520957 25.1044 0.81414C25.4779 1.10732 25.7733 1.5471 25.9071 1.96996C25.9628 2.17857 25.9851 2.53377 25.9405 2.78185C25.8402 3.36258 25.5225 3.90948 24.9595 4.47329C24.3631 5.06529 23.7221 5.38667 22.9528 5.49943C22.7299 5.53326 22.2617 5.54453 22.0387 5.52762L22.0276 5.52198Z" fill="#1CA7CC"/>
</svg>
