<svg width="41" height="29" viewBox="0 0 41 29" fill="none" xmlns="http://www.w3.org/2000/svg">
<g clip-path="url(#clip0_34_465)">
<path d="M27.1372 14.0718C23.4701 12.1183 19.9578 10.3223 16.3683 8.44873V19.6636C20.1457 17.6171 24.127 15.7427 27.1527 14.0709H27.1372V14.0718Z" fill="white"/>
<path d="M27.1372 14.0718C23.4701 12.1183 16.3683 8.44873 16.3683 8.44873L25.8362 14.7898C25.8362 14.7898 24.1115 15.7432 27.1372 14.0715V14.0718Z" fill="#E8E0E0"/>
<path d="M17.0597 28.4449C9.44193 28.3043 6.83998 28.1795 5.24027 27.8508C4.21539 27.6639 3.27059 27.1741 2.52858 26.4451C1.99572 25.9131 1.57203 25.1017 1.24312 23.976C0.961031 23.0381 0.8513 22.2579 0.694743 20.3516C0.45497 16.05 0.397989 12.5328 0.694743 8.60284C0.939029 6.43346 1.05779 3.85698 2.68429 2.35394C3.4262 1.6625 4.3507 1.19646 5.34915 1.01059C6.91642 0.713974 13.5939 0.479492 20.507 0.479492C27.4043 0.479492 34.0968 0.713974 35.6654 1.01059C36.8929 1.23334 37.9995 1.88732 38.7845 2.85383C40.2688 5.18093 40.2948 8.07427 40.4454 10.3378C40.5077 11.4163 40.5077 17.5398 40.4454 18.6183C40.211 22.1954 40.0223 23.4609 39.4894 24.7731C39.2633 25.4327 38.8877 26.0316 38.3918 26.5232C37.6283 27.2687 36.6549 27.7646 35.6014 27.9447C29.0091 28.4387 23.4114 28.5461 17.0582 28.4446L17.0597 28.4449ZM27.1535 14.0718C23.4864 12.1184 19.9742 10.3069 16.3846 8.4319V19.6499C20.1626 17.6031 24.1442 15.7278 27.169 14.0564L27.1535 14.0718Z" fill="#CD201F"/>
</g>
<defs>
<clipPath id="clip0_34_465">
<rect width="40" height="28" fill="white" transform="translate(0.492249 0.47998)"/>
</clipPath>
</defs>
</svg>
